<svg xmlns="http://www.w3.org/2000/svg" width="1500" height="764" viewBox="0 0 1500 764">
<rect width="100%" height="100%" fill="white"/>
<text x="750.0" y="30" text-anchor="middle" font-family="sans-serif" font-size="20">RAW dependency: slot1 replay and forwarding</text>
<text x="750.0" y="54" text-anchor="middle" font-family="sans-serif" font-size="12">Trigger: 25.000 ns</text>
<line x1="250.0" y1="65" x2="250.0" y2="699" stroke="#dddddd"/>
<text x="250.0" y="739" text-anchor="middle" font-family="monospace" font-size="11">0.0 ns</text>
<line x1="401.9" y1="65" x2="401.9" y2="699" stroke="#dddddd"/>
<text x="401.9" y="739" text-anchor="middle" font-family="monospace" font-size="11">9.4 ns</text>
<line x1="553.8" y1="65" x2="553.8" y2="699" stroke="#dddddd"/>
<text x="553.8" y="739" text-anchor="middle" font-family="monospace" font-size="11">18.8 ns</text>
<line x1="705.6" y1="65" x2="705.6" y2="699" stroke="#dddddd"/>
<text x="705.6" y="739" text-anchor="middle" font-family="monospace" font-size="11">28.1 ns</text>
<line x1="857.5" y1="65" x2="857.5" y2="699" stroke="#dddddd"/>
<text x="857.5" y="739" text-anchor="middle" font-family="monospace" font-size="11">37.5 ns</text>
<line x1="1009.4" y1="65" x2="1009.4" y2="699" stroke="#dddddd"/>
<text x="1009.4" y="739" text-anchor="middle" font-family="monospace" font-size="11">46.9 ns</text>
<line x1="1161.2" y1="65" x2="1161.2" y2="699" stroke="#dddddd"/>
<text x="1161.2" y="739" text-anchor="middle" font-family="monospace" font-size="11">56.2 ns</text>
<line x1="1313.1" y1="65" x2="1313.1" y2="699" stroke="#dddddd"/>
<text x="1313.1" y="739" text-anchor="middle" font-family="monospace" font-size="11">65.6 ns</text>
<line x1="1465.0" y1="65" x2="1465.0" y2="699" stroke="#dddddd"/>
<text x="1465.0" y="739" text-anchor="middle" font-family="monospace" font-size="11">75.0 ns</text>
<line x1="655.0" y1="60" x2="655.0" y2="699" stroke="black" stroke-dasharray="6 4"/>
<text x="238" y="103.0" text-anchor="end" font-family="monospace" font-size="13">clk</text>
<line x1="250" y1="118" x2="1465" y2="118" stroke="#eeeeee"/>
<path d="M250.0,113.0 L331.0,113.0 L331.0,83.0 L412.0,83.0 L412.0,113.0 L493.0,113.0 L493.0,83.0 L574.0,83.0 L574.0,113.0 L655.0,113.0 L655.0,83.0 L736.0,83.0 L736.0,113.0 L817.0,113.0 L817.0,83.0 L898.0,83.0 L898.0,113.0 L979.0,113.0 L979.0,83.0 L1060.0,83.0 L1060.0,113.0 L1141.0,113.0 L1141.0,83.0 L1222.0,83.0 L1222.0,113.0 L1303.0,113.0 L1303.0,83.0 L1384.0,83.0 L1384.0,113.0 L1465.0,113.0 L1465.0,83.0 L1465.0,83.0" fill="none" stroke="black" stroke-width="2"/>
<text x="238" y="151.0" text-anchor="end" font-family="monospace" font-size="13">reset</text>
<line x1="250" y1="166" x2="1465" y2="166" stroke="#eeeeee"/>
<path d="M250.0,131.0 L509.2,131.0 L509.2,161.0 L1465.0,161.0" fill="none" stroke="black" stroke-width="2"/>
<text x="238" y="199.0" text-anchor="end" font-family="monospace" font-size="13">dbg_fd_pc0_d</text>
<line x1="250" y1="214" x2="1465" y2="214" stroke="#eeeeee"/>
<line x1="250.0" y1="181.0" x2="817.0" y2="181.0" stroke="black"/>
<line x1="250.0" y1="209.0" x2="817.0" y2="209.0" stroke="black"/>
<text x="533.5" y="199.0" text-anchor="middle" font-family="monospace" font-size="11">0x00000000</text>
<line x1="817.0" y1="181.0" x2="979.0" y2="181.0" stroke="black"/>
<line x1="817.0" y1="209.0" x2="979.0" y2="209.0" stroke="black"/>
<text x="898.0" y="199.0" text-anchor="middle" font-family="monospace" font-size="11">0x00000004</text>
<line x1="979.0" y1="181.0" x2="1141.0" y2="181.0" stroke="black"/>
<line x1="979.0" y1="209.0" x2="1141.0" y2="209.0" stroke="black"/>
<text x="1060.0" y="199.0" text-anchor="middle" font-family="monospace" font-size="11">0x00000008</text>
<line x1="1141.0" y1="181.0" x2="1303.0" y2="181.0" stroke="black"/>
<line x1="1141.0" y1="209.0" x2="1303.0" y2="209.0" stroke="black"/>
<text x="1222.0" y="199.0" text-anchor="middle" font-family="monospace" font-size="11">0x0000000c</text>
<line x1="1303.0" y1="181.0" x2="1465.0" y2="181.0" stroke="black"/>
<line x1="1303.0" y1="209.0" x2="1465.0" y2="209.0" stroke="black"/>
<text x="1384.0" y="199.0" text-anchor="middle" font-family="monospace" font-size="11">0x00000010</text>
<line x1="1465.0" y1="181.0" x2="1465.0" y2="181.0" stroke="black"/>
<line x1="1465.0" y1="209.0" x2="1465.0" y2="209.0" stroke="black"/>
<text x="238" y="247.0" text-anchor="end" font-family="monospace" font-size="13">dbg_fd_pc1_d</text>
<line x1="250" y1="262" x2="1465" y2="262" stroke="#eeeeee"/>
<line x1="250.0" y1="229.0" x2="817.0" y2="229.0" stroke="black"/>
<line x1="250.0" y1="257.0" x2="817.0" y2="257.0" stroke="black"/>
<text x="533.5" y="247.0" text-anchor="middle" font-family="monospace" font-size="11">0x00000004</text>
<line x1="817.0" y1="229.0" x2="979.0" y2="229.0" stroke="black"/>
<line x1="817.0" y1="257.0" x2="979.0" y2="257.0" stroke="black"/>
<text x="898.0" y="247.0" text-anchor="middle" font-family="monospace" font-size="11">0x00000008</text>
<line x1="979.0" y1="229.0" x2="1141.0" y2="229.0" stroke="black"/>
<line x1="979.0" y1="257.0" x2="1141.0" y2="257.0" stroke="black"/>
<text x="1060.0" y="247.0" text-anchor="middle" font-family="monospace" font-size="11">0x0000000c</text>
<line x1="1141.0" y1="229.0" x2="1303.0" y2="229.0" stroke="black"/>
<line x1="1141.0" y1="257.0" x2="1303.0" y2="257.0" stroke="black"/>
<text x="1222.0" y="247.0" text-anchor="middle" font-family="monospace" font-size="11">0x00000010</text>
<line x1="1303.0" y1="229.0" x2="1465.0" y2="229.0" stroke="black"/>
<line x1="1303.0" y1="257.0" x2="1465.0" y2="257.0" stroke="black"/>
<text x="1384.0" y="247.0" text-anchor="middle" font-family="monospace" font-size="11">0x00000014</text>
<line x1="1465.0" y1="229.0" x2="1465.0" y2="229.0" stroke="black"/>
<line x1="1465.0" y1="257.0" x2="1465.0" y2="257.0" stroke="black"/>
<text x="238" y="295.0" text-anchor="end" font-family="monospace" font-size="13">dbg_issue0_d</text>
<line x1="250" y1="310" x2="1465" y2="310" stroke="#eeeeee"/>
<path d="M250.0,305.0 L655.0,305.0 L655.0,275.0 L1465.0,275.0" fill="none" stroke="black" stroke-width="2"/>
<text x="238" y="343.0" text-anchor="end" font-family="monospace" font-size="13">dbg_issue1_d</text>
<line x1="250" y1="358" x2="1465" y2="358" stroke="#eeeeee"/>
<path d="M250.0,353.0 L655.0,353.0 L655.0,353.0 L1465.0,353.0" fill="none" stroke="black" stroke-width="2"/>
<text x="238" y="391.0" text-anchor="end" font-family="monospace" font-size="13">dbg_issue_block_mask_d</text>
<line x1="250" y1="406" x2="1465" y2="406" stroke="#eeeeee"/>
<line x1="250.0" y1="373.0" x2="655.0" y2="373.0" stroke="black"/>
<line x1="250.0" y1="401.0" x2="655.0" y2="401.0" stroke="black"/>
<text x="452.5" y="391.0" text-anchor="middle" font-family="monospace" font-size="11">0x00</text>
<line x1="655.0" y1="373.0" x2="1465.0" y2="373.0" stroke="black"/>
<line x1="655.0" y1="401.0" x2="1465.0" y2="401.0" stroke="black"/>
<text x="1060.0" y="391.0" text-anchor="middle" font-family="monospace" font-size="11">0x01</text>
<text x="238" y="439.0" text-anchor="end" font-family="monospace" font-size="13">dbg_replay1_d</text>
<line x1="250" y1="454" x2="1465" y2="454" stroke="#eeeeee"/>
<path d="M250.0,449.0 L655.0,449.0 L655.0,419.0 L1465.0,419.0" fill="none" stroke="black" stroke-width="2"/>
<text x="238" y="487.0" text-anchor="end" font-family="monospace" font-size="13">dbg_advance_count_d</text>
<line x1="250" y1="502" x2="1465" y2="502" stroke="#eeeeee"/>
<line x1="250.0" y1="469.0" x2="655.0" y2="469.0" stroke="black"/>
<line x1="250.0" y1="497.0" x2="655.0" y2="497.0" stroke="black"/>
<text x="452.5" y="487.0" text-anchor="middle" font-family="monospace" font-size="11">0x0</text>
<line x1="655.0" y1="469.0" x2="1465.0" y2="469.0" stroke="black"/>
<line x1="655.0" y1="497.0" x2="1465.0" y2="497.0" stroke="black"/>
<text x="1060.0" y="487.0" text-anchor="middle" font-family="monospace" font-size="11">0x1</text>
<text x="238" y="535.0" text-anchor="end" font-family="monospace" font-size="13">dbg_de_valid0_d</text>
<line x1="250" y1="550" x2="1465" y2="550" stroke="#eeeeee"/>
<path d="M250.0,545.0 L817.0,545.0 L817.0,515.0 L1465.0,515.0" fill="none" stroke="black" stroke-width="2"/>
<text x="238" y="583.0" text-anchor="end" font-family="monospace" font-size="13">dbg_fwd_a_en0_d</text>
<line x1="250" y1="598" x2="1465" y2="598" stroke="#eeeeee"/>
<path d="M250.0,593.0 L979.0,593.0 L979.0,563.0 L1465.0,563.0" fill="none" stroke="black" stroke-width="2"/>
<text x="238" y="631.0" text-anchor="end" font-family="monospace" font-size="13">dbg_fwd_a_sel0_d</text>
<line x1="250" y1="646" x2="1465" y2="646" stroke="#eeeeee"/>
<line x1="250.0" y1="613.0" x2="979.0" y2="613.0" stroke="black"/>
<line x1="250.0" y1="641.0" x2="979.0" y2="641.0" stroke="black"/>
<text x="614.5" y="631.0" text-anchor="middle" font-family="monospace" font-size="11">0x0</text>
<line x1="979.0" y1="613.0" x2="1465.0" y2="613.0" stroke="black"/>
<line x1="979.0" y1="641.0" x2="1465.0" y2="641.0" stroke="black"/>
<text x="1222.0" y="631.0" text-anchor="middle" font-family="monospace" font-size="11">0x3</text>
<text x="238" y="679.0" text-anchor="end" font-family="monospace" font-size="13">dbg_wb_valid0_d</text>
<line x1="250" y1="694" x2="1465" y2="694" stroke="#eeeeee"/>
<path d="M250.0,689.0 L1141.0,689.0 L1141.0,659.0 L1465.0,659.0" fill="none" stroke="black" stroke-width="2"/>
</svg>
